<svg xmlns="http://www.w3.org/2000/svg" xmlns:xlink="http://www.w3.org/1999/xlink" width="583pt" height="554pt" viewBox="0.00 0.00 583.00 554.00">
<g id="graph0" class="graph" transform="scale(1 1) rotate(0) translate(4 550)">
<title>G</title>
<polygon fill="white" stroke="transparent" points="-4,4 -4,-550 579,-550 579,4 -4,4"/>
<g id="clust1" class="cluster">
<title>cluster_Output</title>
<polygon fill="#ffec8b" stroke="#ffec8b" points="8,-8 8,-174 546,-174 546,-8 8,-8"/>
<text text-anchor="middle" x="277" y="-15.8" font-family="Times,serif" font-size="14.00">Output</text>
</g>
<g id="clust2" class="cluster">
<title>cluster_Input</title>
<polygon fill="#ffec8b" stroke="#ffec8b" points="157,-446 157,-538 567,-538 567,-446 157,-446"/>
<text text-anchor="middle" x="362" y="-522.8" font-family="Times,serif" font-size="14.00">Input</text>
</g>
<!-- 137246008737744 -->
<g id="node1" class="node">
<title>137246008737744</title>
<polygon fill="#ccebc5" stroke="black" points="354.5,-158.5 189.5,-158.5 189.5,-120.5 354.5,-120.5 354.5,-158.5"/>
<text text-anchor="start" x="197.5" y="-143.3" font-family="Times,serif" font-size="14.00">Expression:</text>
<text text-anchor="start" x="197.5" y="-128.3" font-family="Times,serif" font-size="14.00">  x_0 &lt;= (5.00E+01)</text>
</g>
<!-- 137246016940944 -->
<g id="node2" class="node">
<title>137246016940944</title>
<polygon fill="#ccebc5" stroke="black" points="181.5,-77 16.5,-77 16.5,-39 181.5,-39 181.5,-77"/>
<text text-anchor="start" x="24.5" y="-61.8" font-family="Times,serif" font-size="14.00">Expression:</text>
<text text-anchor="start" x="24.5" y="-46.8" font-family="Times,serif" font-size="14.00">  x_0 &lt;= (5.00E+01)</text>
</g>
<!-- 137246016937344 -->
<g id="node3" class="node">
<title>137246016937344</title>
<polygon fill="#b3cde3" stroke="black" points="171.5,-166 16.5,-166 16.5,-113 171.5,-113 171.5,-166"/>
<text text-anchor="start" x="24.5" y="-150.8" font-family="Times,serif" font-size="14.00">Rank:</text>
<text text-anchor="start" x="24.5" y="-135.8" font-family="Times,serif" font-size="14.00">  method: 'ordinal'</text>
<text text-anchor="start" x="24.5" y="-120.8" font-family="Times,serif" font-size="14.00">  mask: AssetExists</text>
</g>
<!-- 137246016937344&#45;&gt;137246016940944 -->
<g id="edge7" class="edge">
<title>137246016937344-&gt;137246016940944</title>
<path fill="none" stroke="black" d="M94,-112.81C94,-112.81 94,-87.25 94,-87.25"/>
<polygon fill="black" stroke="black" points="97.5,-87.25 94,-77.25 90.5,-87.25 97.5,-87.25"/>
</g>
<!-- 137246003856480 -->
<g id="node4" class="node">
<title>137246003856480</title>
<polygon fill="#ccebc5" stroke="black" points="537.5,-158.5 372.5,-158.5 372.5,-120.5 537.5,-120.5 537.5,-158.5"/>
<text text-anchor="start" x="380.5" y="-143.3" font-family="Times,serif" font-size="14.00">Expression:</text>
<text text-anchor="start" x="380.5" y="-128.3" font-family="Times,serif" font-size="14.00">  x_0 &lt;= (1.00E+02)</text>
</g>
<!-- 137246056828208 -->
<g id="node5" class="node">
<title>137246056828208</title>
<polygon fill="#fbb4ae" stroke="black" points="353,-507 165,-507 165,-454 353,-454 353,-507"/>
<text text-anchor="start" x="173" y="-491.8" font-family="Times,serif" font-size="14.00">BoundColumn:</text>
<text text-anchor="start" x="173" y="-476.8" font-family="Times,serif" font-size="14.00">  Dataset: EquityPricing</text>
<text text-anchor="start" x="173" y="-461.8" font-family="Times,serif" font-size="14.00">  Column: close</text>
</g>
<!-- 137247071019568 -->
<g id="node7" class="node">
<title>137247071019568</title>
<polygon fill="#b3cde3" stroke="black" points="339,-418 179,-418 179,-380 339,-380 339,-418"/>
<text text-anchor="start" x="187" y="-402.8" font-family="Times,serif" font-size="14.00">Returns:</text>
<text text-anchor="start" x="187" y="-387.8" font-family="Times,serif" font-size="14.00">  window_length: 21</text>
</g>
<!-- 137246056828208&#45;&gt;137247071019568 -->
<g id="edge5" class="edge">
<title>137246056828208-&gt;137247071019568</title>
<path fill="none" stroke="black" d="M259,-453.81C259,-453.81 259,-428.25 259,-428.25"/>
<polygon fill="black" stroke="black" points="262.5,-428.25 259,-418.25 255.5,-428.25 262.5,-428.25"/>
</g>
<!-- 137246007338528 -->
<g id="node8" class="node">
<title>137246007338528</title>
<polygon fill="#b3cde3" stroke="black" points="543,-418 367,-418 367,-380 543,-380 543,-418"/>
<text text-anchor="start" x="375" y="-402.8" font-family="Times,serif" font-size="14.00">AverageDollarVolume:</text>
<text text-anchor="start" x="375" y="-387.8" font-family="Times,serif" font-size="14.00">  window_length: 30</text>
</g>
<!-- 137246056828208&#45;&gt;137246007338528 -->
<g id="edge6" class="edge">
<title>137246056828208-&gt;137246007338528</title>
<path fill="none" stroke="black" d="M348.25,-453.81C348.25,-430.05 348.25,-399 348.25,-399 348.25,-399 356.84,-399 356.84,-399"/>
<polygon fill="black" stroke="black" points="356.84,-402.5 366.84,-399 356.84,-395.5 356.84,-402.5"/>
</g>
<!-- 137246056839392 -->
<g id="node6" class="node">
<title>137246056839392</title>
<polygon fill="#fbb4ae" stroke="black" points="559,-507 371,-507 371,-454 559,-454 559,-507"/>
<text text-anchor="start" x="379" y="-491.8" font-family="Times,serif" font-size="14.00">BoundColumn:</text>
<text text-anchor="start" x="379" y="-476.8" font-family="Times,serif" font-size="14.00">  Dataset: EquityPricing</text>
<text text-anchor="start" x="379" y="-461.8" font-family="Times,serif" font-size="14.00">  Column: volume</text>
</g>
<!-- 137246056839392&#45;&gt;137246007338528 -->
<g id="edge10" class="edge">
<title>137246056839392-&gt;137246007338528</title>
<path fill="none" stroke="black" d="M457,-453.81C457,-453.81 457,-428.25 457,-428.25"/>
<polygon fill="black" stroke="black" points="460.5,-428.25 457,-418.25 453.5,-428.25 460.5,-428.25"/>
</g>
<!-- 137246007338336 -->
<g id="node9" class="node">
<title>137246007338336</title>
<polygon fill="#b3cde3" stroke="black" points="343.5,-336.5 174.5,-336.5 174.5,-298.5 343.5,-298.5 343.5,-336.5"/>
<text text-anchor="start" x="182.5" y="-321.3" font-family="Times,serif" font-size="14.00">MeanReversion:</text>
<text text-anchor="start" x="182.5" y="-306.3" font-family="Times,serif" font-size="14.00">  window_length: 252</text>
</g>
<!-- 137247071019568&#45;&gt;137246007338336 -->
<g id="edge4" class="edge">
<title>137247071019568-&gt;137246007338336</title>
<path fill="none" stroke="black" d="M259,-379.69C259,-379.69 259,-346.68 259,-346.68"/>
<polygon fill="black" stroke="black" points="262.5,-346.68 259,-336.68 255.5,-346.68 262.5,-346.68"/>
</g>
<!-- 137246003865936 -->
<g id="node10" class="node">
<title>137246003865936</title>
<polygon fill="#b3cde3" stroke="black" points="532.5,-344 377.5,-344 377.5,-291 532.5,-291 532.5,-344"/>
<text text-anchor="start" x="385.5" y="-328.8" font-family="Times,serif" font-size="14.00">Rank:</text>
<text text-anchor="start" x="385.5" y="-313.8" font-family="Times,serif" font-size="14.00">  method: 'ordinal'</text>
<text text-anchor="start" x="385.5" y="-298.8" font-family="Times,serif" font-size="14.00">  mask: AssetExists</text>
</g>
<!-- 137246007338528&#45;&gt;137246003865936 -->
<g id="edge9" class="edge">
<title>137246007338528-&gt;137246003865936</title>
<path fill="none" stroke="black" d="M455,-379.69C455,-379.69 455,-354.08 455,-354.08"/>
<polygon fill="black" stroke="black" points="458.5,-354.08 455,-344.08 451.5,-354.08 458.5,-354.08"/>
</g>
<!-- 137246007338336&#45;&gt;137246016937344 -->
<g id="edge3" class="edge">
<title>137246007338336-&gt;137246016937344</title>
<path fill="none" stroke="black" d="M178,-298.43C178,-256.91 178,-162 178,-162 178,-162 177.37,-162 177.37,-162"/>
<polygon fill="black" stroke="black" points="181.69,-158.5 171.69,-162 181.69,-165.5 181.69,-158.5"/>
</g>
<!-- 137246007338768 -->
<g id="node11" class="node">
<title>137246007338768</title>
<polygon fill="#b3cde3" stroke="black" points="343.5,-255 188.5,-255 188.5,-202 343.5,-202 343.5,-255"/>
<text text-anchor="start" x="196.5" y="-239.8" font-family="Times,serif" font-size="14.00">Rank:</text>
<text text-anchor="start" x="196.5" y="-224.8" font-family="Times,serif" font-size="14.00">  method: 'ordinal'</text>
<text text-anchor="start" x="196.5" y="-209.8" font-family="Times,serif" font-size="14.00">  mask: AssetExists</text>
</g>
<!-- 137246007338336&#45;&gt;137246007338768 -->
<g id="edge2" class="edge">
<title>137246007338336-&gt;137246007338768</title>
<path fill="none" stroke="black" d="M266,-298.19C266,-298.19 266,-265.2 266,-265.2"/>
<polygon fill="black" stroke="black" points="269.5,-265.2 266,-255.2 262.5,-265.2 269.5,-265.2"/>
</g>
<!-- 137246003865936&#45;&gt;137246003856480 -->
<g id="edge8" class="edge">
<title>137246003865936-&gt;137246003856480</title>
<path fill="none" stroke="black" d="M455,-290.85C455,-290.85 455,-168.65 455,-168.65"/>
<polygon fill="black" stroke="black" points="458.5,-168.65 455,-158.65 451.5,-168.65 458.5,-168.65"/>
</g>
<!-- 137246007338768&#45;&gt;137246008737744 -->
<g id="edge1" class="edge">
<title>137246007338768-&gt;137246008737744</title>
<path fill="none" stroke="black" d="M266.5,-201.8C266.5,-201.8 266.5,-168.55 266.5,-168.55"/>
<polygon fill="black" stroke="black" points="270,-168.55 266.5,-158.55 263,-168.55 270,-168.55"/>
</g>
</g>
</svg>