<svg xmlns="http://www.w3.org/2000/svg" xmlns:xlink="http://www.w3.org/1999/xlink" width="583pt" height="554pt" viewBox="0.00 0.00 583.00 554.00">
<g id="graph0" class="graph" transform="scale(1 1) rotate(0) translate(4 550)">
<title>G</title>
<polygon fill="white" stroke="transparent" points="-4,4 -4,-550 579,-550 579,4 -4,4"/>
<g id="clust1" class="cluster">
<title>cluster_Output</title>
<polygon fill="#ffec8b" stroke="#ffec8b" points="29,-8 29,-174 567,-174 567,-8 29,-8"/>
<text text-anchor="middle" x="298" y="-15.8" font-family="Times,serif" font-size="14.00">Output</text>
</g>
<g id="clust2" class="cluster">
<title>cluster_Input</title>
<polygon fill="#ffec8b" stroke="#ffec8b" points="8,-446 8,-538 418,-538 418,-446 8,-446"/>
<text text-anchor="middle" x="213" y="-522.8" font-family="Times,serif" font-size="14.00">Input</text>
</g>
<!-- 138078391022640 -->
<g id="node1" class="node">
<title>138078391022640</title>
<polygon fill="#ccebc5" stroke="black" points="558.5,-158.5 393.5,-158.5 393.5,-120.5 558.5,-120.5 558.5,-158.5"/>
<text text-anchor="start" x="401.5" y="-143.3" font-family="Times,serif" font-size="14.00">Expression:</text>
<text text-anchor="start" x="401.5" y="-128.3" font-family="Times,serif" font-size="14.00">  x_0 &lt;= (5.00E+01)</text>
</g>
<!-- 138078391023072 -->
<g id="node2" class="node">
<title>138078391023072</title>
<polygon fill="#ccebc5" stroke="black" points="380.5,-77 215.5,-77 215.5,-39 380.5,-39 380.5,-77"/>
<text text-anchor="start" x="223.5" y="-61.8" font-family="Times,serif" font-size="14.00">Expression:</text>
<text text-anchor="start" x="223.5" y="-46.8" font-family="Times,serif" font-size="14.00">  x_0 &lt;= (5.00E+01)</text>
</g>
<!-- 138078391022928 -->
<g id="node3" class="node">
<title>138078391022928</title>
<polygon fill="#b3cde3" stroke="black" points="375.5,-166 220.5,-166 220.5,-113 375.5,-113 375.5,-166"/>
<text text-anchor="start" x="228.5" y="-150.8" font-family="Times,serif" font-size="14.00">Rank:</text>
<text text-anchor="start" x="228.5" y="-135.8" font-family="Times,serif" font-size="14.00">  method: 'ordinal'</text>
<text text-anchor="start" x="228.5" y="-120.8" font-family="Times,serif" font-size="14.00">  mask: AssetExists</text>
</g>
<!-- 138078391022928&#45;&gt;138078391023072 -->
<g id="edge7" class="edge">
<title>138078391022928-&gt;138078391023072</title>
<path fill="none" stroke="black" d="M298,-112.81C298,-112.81 298,-87.25 298,-87.25"/>
<polygon fill="black" stroke="black" points="301.5,-87.25 298,-77.25 294.5,-87.25 301.5,-87.25"/>
</g>
<!-- 138078391022544 -->
<g id="node4" class="node">
<title>138078391022544</title>
<polygon fill="#ccebc5" stroke="black" points="202.5,-158.5 37.5,-158.5 37.5,-120.5 202.5,-120.5 202.5,-158.5"/>
<text text-anchor="start" x="45.5" y="-143.3" font-family="Times,serif" font-size="14.00">Expression:</text>
<text text-anchor="start" x="45.5" y="-128.3" font-family="Times,serif" font-size="14.00">  x_0 &lt;= (1.00E+02)</text>
</g>
<!-- 138078442914720 -->
<g id="node5" class="node">
<title>138078442914720</title>
<polygon fill="#fbb4ae" stroke="black" points="204,-507 16,-507 16,-454 204,-454 204,-507"/>
<text text-anchor="start" x="24" y="-491.8" font-family="Times,serif" font-size="14.00">BoundColumn:</text>
<text text-anchor="start" x="24" y="-476.8" font-family="Times,serif" font-size="14.00">  Dataset: EquityPricing</text>
<text text-anchor="start" x="24" y="-461.8" font-family="Times,serif" font-size="14.00">  Column: volume</text>
</g>
<!-- 138079454803568 -->
<g id="node8" class="node">
<title>138079454803568</title>
<polygon fill="#b3cde3" stroke="black" points="208,-418 32,-418 32,-380 208,-380 208,-418"/>
<text text-anchor="start" x="40" y="-402.8" font-family="Times,serif" font-size="14.00">AverageDollarVolume:</text>
<text text-anchor="start" x="40" y="-387.8" font-family="Times,serif" font-size="14.00">  window_length: 30</text>
</g>
<!-- 138078442914720&#45;&gt;138079454803568 -->
<g id="edge10" class="edge">
<title>138078442914720-&gt;138079454803568</title>
<path fill="none" stroke="black" d="M118,-453.81C118,-453.81 118,-428.25 118,-428.25"/>
<polygon fill="black" stroke="black" points="121.5,-428.25 118,-418.25 114.5,-428.25 121.5,-428.25"/>
</g>
<!-- 138078442733040 -->
<g id="node6" class="node">
<title>138078442733040</title>
<polygon fill="#fbb4ae" stroke="black" points="410,-507 222,-507 222,-454 410,-454 410,-507"/>
<text text-anchor="start" x="230" y="-491.8" font-family="Times,serif" font-size="14.00">BoundColumn:</text>
<text text-anchor="start" x="230" y="-476.8" font-family="Times,serif" font-size="14.00">  Dataset: EquityPricing</text>
<text text-anchor="start" x="230" y="-461.8" font-family="Times,serif" font-size="14.00">  Column: close</text>
</g>
<!-- 138079454803664 -->
<g id="node7" class="node">
<title>138079454803664</title>
<polygon fill="#b3cde3" stroke="black" points="396,-418 236,-418 236,-380 396,-380 396,-418"/>
<text text-anchor="start" x="244" y="-402.8" font-family="Times,serif" font-size="14.00">Returns:</text>
<text text-anchor="start" x="244" y="-387.8" font-family="Times,serif" font-size="14.00">  window_length: 21</text>
</g>
<!-- 138078442733040&#45;&gt;138079454803664 -->
<g id="edge5" class="edge">
<title>138078442733040-&gt;138079454803664</title>
<path fill="none" stroke="black" d="M316,-453.81C316,-453.81 316,-428.25 316,-428.25"/>
<polygon fill="black" stroke="black" points="319.5,-428.25 316,-418.25 312.5,-428.25 319.5,-428.25"/>
</g>
<!-- 138078442733040&#45;&gt;138079454803568 -->
<g id="edge6" class="edge">
<title>138078442733040-&gt;138079454803568</title>
<path fill="none" stroke="black" d="M226.75,-453.81C226.75,-430.05 226.75,-399 226.75,-399 226.75,-399 218.16,-399 218.16,-399"/>
<polygon fill="black" stroke="black" points="218.16,-395.5 208.16,-399 218.16,-402.5 218.16,-395.5"/>
</g>
<!-- 138079454803616 -->
<g id="node9" class="node">
<title>138079454803616</title>
<polygon fill="#b3cde3" stroke="black" points="400.5,-336.5 231.5,-336.5 231.5,-298.5 400.5,-298.5 400.5,-336.5"/>
<text text-anchor="start" x="239.5" y="-321.3" font-family="Times,serif" font-size="14.00">MeanReversion:</text>
<text text-anchor="start" x="239.5" y="-306.3" font-family="Times,serif" font-size="14.00">  window_length: 252</text>
</g>
<!-- 138079454803664&#45;&gt;138079454803616 -->
<g id="edge4" class="edge">
<title>138079454803664-&gt;138079454803616</title>
<path fill="none" stroke="black" d="M316,-379.69C316,-379.69 316,-346.68 316,-346.68"/>
<polygon fill="black" stroke="black" points="319.5,-346.68 316,-336.68 312.5,-346.68 319.5,-346.68"/>
</g>
<!-- 138078391023552 -->
<g id="node10" class="node">
<title>138078391023552</title>
<polygon fill="#b3cde3" stroke="black" points="197.5,-344 42.5,-344 42.5,-291 197.5,-291 197.5,-344"/>
<text text-anchor="start" x="50.5" y="-328.8" font-family="Times,serif" font-size="14.00">Rank:</text>
<text text-anchor="start" x="50.5" y="-313.8" font-family="Times,serif" font-size="14.00">  method: 'ordinal'</text>
<text text-anchor="start" x="50.5" y="-298.8" font-family="Times,serif" font-size="14.00">  mask: AssetExists</text>
</g>
<!-- 138079454803568&#45;&gt;138078391023552 -->
<g id="edge9" class="edge">
<title>138079454803568-&gt;138078391023552</title>
<path fill="none" stroke="black" d="M120,-379.69C120,-379.69 120,-354.08 120,-354.08"/>
<polygon fill="black" stroke="black" points="123.5,-354.08 120,-344.08 116.5,-354.08 123.5,-354.08"/>
</g>
<!-- 138079454803616&#45;&gt;138078391022928 -->
<g id="edge3" class="edge">
<title>138079454803616-&gt;138078391022928</title>
<path fill="none" stroke="black" d="M301.5,-298.45C301.5,-298.45 301.5,-176.19 301.5,-176.19"/>
<polygon fill="black" stroke="black" points="305,-176.19 301.5,-166.19 298,-176.19 305,-176.19"/>
</g>
<!-- 138078555091536 -->
<g id="node11" class="node">
<title>138078555091536</title>
<polygon fill="#b3cde3" stroke="black" points="526.5,-255 371.5,-255 371.5,-202 526.5,-202 526.5,-255"/>
<text text-anchor="start" x="379.5" y="-239.8" font-family="Times,serif" font-size="14.00">Rank:</text>
<text text-anchor="start" x="379.5" y="-224.8" font-family="Times,serif" font-size="14.00">  method: 'ordinal'</text>
<text text-anchor="start" x="379.5" y="-209.8" font-family="Times,serif" font-size="14.00">  mask: AssetExists</text>
</g>
<!-- 138079454803616&#45;&gt;138078555091536 -->
<g id="edge2" class="edge">
<title>138079454803616-&gt;138078555091536</title>
<path fill="none" stroke="black" d="M386,-298.19C386,-298.19 386,-265.2 386,-265.2"/>
<polygon fill="black" stroke="black" points="389.5,-265.2 386,-255.2 382.5,-265.2 389.5,-265.2"/>
</g>
<!-- 138078391023552&#45;&gt;138078391022544 -->
<g id="edge8" class="edge">
<title>138078391023552-&gt;138078391022544</title>
<path fill="none" stroke="black" d="M120,-290.85C120,-290.85 120,-168.65 120,-168.65"/>
<polygon fill="black" stroke="black" points="123.5,-168.65 120,-158.65 116.5,-168.65 123.5,-168.65"/>
</g>
<!-- 138078555091536&#45;&gt;138078391022640 -->
<g id="edge1" class="edge">
<title>138078555091536-&gt;138078391022640</title>
<path fill="none" stroke="black" d="M460,-201.8C460,-201.8 460,-168.55 460,-168.55"/>
<polygon fill="black" stroke="black" points="463.5,-168.55 460,-158.55 456.5,-168.55 463.5,-168.55"/>
</g>
</g>
</svg>